{
  "accessors": [
    {
      "bufferView": 2,
      "componentType": 5126,
      "count": 939,
      "max": [
        2.350705146789551,
        3.3661184310913086,
        2.3562862873077393
      ],
      "min": [
        -2.360753297805786,
        -0.8315335512161255,
        -2.3551723957061768
      ],
      "type": "VEC3"
    },
    {
      "bufferView": 2,
      "byteOffset": 11268,
      "componentType": 5126,
      "count": 939,
      "max": [
        0.9992845058441162,
        1.0,
        0.9992845058441162
      ],
      "min": [
        -0.9992845058441162,
        -1.0,
        -0.9992845058441162
      ],
      "type": "VEC3"
    },
    {
      "bufferView": 1,
      "componentType": 5126,
      "count": 939,
      "max": [
        1.0,
        1.0000001192092896
      ],
      "min": [
        7.450580596923828e-08,
        0.01000000536441803
      ],
      "type": "VEC2"
    },
    {
      "bufferView": 0,
      "componentType": 5125,
      "count": 3540,
      "type": "SCALAR"
    },
    {
      "bufferView": 2,
      "byteOffset": 22536,
      "componentType": 5126,
      "count": 560,
      "max": [
        6.436684608459473,
        1.1052879095077515,
        0.021374063566327095
      ],
      "min": [
        1.5885803699493408,
        -0.4052985906600952,
        -0.022042881697416306
      ],
      "type": "VEC3"
    },
    {
      "bufferView": 2,
      "byteOffset": 29256,
      "componentType": 5126,
      "count": 560,
      "max": [
        0.0,
        0.0,
        1.0
      ],
      "min": [
        0.0,
        0.0,
        -1.0
      ],
      "type": "VEC3"
    },
    {
      "bufferView": 1,
      "byteOffset": 7512,
      "componentType": 5126,
      "count": 560,
      "max": [
        0.7916670441627502,
        0.6263501048088074
      ],
      "min": [
        0.7083333134651184,
        0.6263496279716492
      ],
      "type": "VEC2"
    },
    {
      "bufferView": 0,
      "byteOffset": 14160,
      "componentType": 5125,
      "count": 840,
      "type": "SCALAR"
    },
    {
      "bufferView": 2,
      "byteOffset": 35976,
      "componentType": 5126,
      "count": 2330,
      "max": [
        6.583493709564209,
        1.2309812307357788,
        0.11243966221809387
      ],
      "min": [
        0.84842848777771,
        -0.5703085660934448,
        -0.11474607139825821
      ],
      "type": "VEC3"
    },
    {
      "bufferView": 2,
      "byteOffset": 63936,
      "componentType": 5126,
      "count": 2330,
      "max": [
        1.0,
        1.0,
        1.0
      ],
      "min": [
        -0.9999768733978271,
        -1.0,
        -1.0
      ],
      "type": "VEC3"
    },
    {
      "bufferView": 1,
      "byteOffset": 11992,
      "componentType": 5126,
      "count": 2330,
      "max": [
        0.7916670441627502,
        1.0
      ],
      "min": [
        0.0,
        0.0
      ],
      "type": "VEC2"
    },
    {
      "bufferView": 0,
      "byteOffset": 17520,
      "componentType": 5125,
      "count": 4218,
      "type": "SCALAR"
    },
    {
      "bufferView": 2,
      "byteOffset": 91896,
      "componentType": 5126,
      "count": 560,
      "max": [
        6.436684608459473,
        1.1052879095077515,
        0.021374063566327095
      ],
      "min": [
        1.5885803699493408,
        -0.4052985906600952,
        -0.022042881697416306
      ],
      "type": "VEC3"
    },
    {
      "bufferView": 2,
      "byteOffset": 98616,
      "componentType": 5126,
      "count": 560,
      "max": [
        0.0,
        0.0,
        1.0
      ],
      "min": [
        0.0,
        0.0,
        -1.0
      ],
      "type": "VEC3"
    },
    {
      "bufferView": 1,
      "byteOffset": 30632,
      "componentType": 5126,
      "count": 560,
      "max": [
        0.7916670441627502,
        0.6263501048088074
      ],
      "min": [
        0.7083333134651184,
        0.6263496279716492
      ],
      "type": "VEC2"
    },
    {
      "bufferView": 0,
      "byteOffset": 34392,
      "componentType": 5125,
      "count": 840,
      "type": "SCALAR"
    },
    {
      "bufferView": 2,
      "byteOffset": 105336,
      "componentType": 5126,
      "count": 2330,
      "max": [
        6.583493709564209,
        1.2309812307357788,
        0.11243966221809387
      ],
      "min": [
        0.84842848777771,
        -0.5703085660934448,
        -0.11474607139825821
      ],
      "type": "VEC3"
    },
    {
      "bufferView": 2,
      "byteOffset": 133296,
      "componentType": 5126,
      "count": 2330,
      "max": [
        1.0,
        1.0,
        1.0
      ],
      "min": [
        -0.9999768733978271,
        -1.0,
        -1.0
      ],
      "type": "VEC3"
    },
    {
      "bufferView": 1,
      "byteOffset": 35112,
      "componentType": 5126,
      "count": 2330,
      "max": [
        0.7916670441627502,
        1.0
      ],
      "min": [
        0.0,
        0.0
      ],
      "type": "VEC2"
    },
    {
      "bufferView": 0,
      "byteOffset": 37752,
      "componentType": 5125,
      "count": 4218,
      "type": "SCALAR"
    },
    {
      "bufferView": 2,
      "byteOffset": 161256,
      "componentType": 5126,
      "count": 288,
      "max": [
        1.0355089902877808,
        2.2567782402038574,
        1.0387482643127441
      ],
      "min": [
        -1.042251706123352,
        1.2476683855056763,
        -1.0390124320983887
      ],
      "type": "VEC3"
    },
    {
      "bufferView": 2,
      "byteOffset": 164712,
      "componentType": 5126,
      "count": 288,
      "max": [
        0.9659259915351868,
        0.4873392879962921,
        0.965925931930542
      ],
      "min": [
        -0.9659261107444763,
        -1.2694227891074661e-08,
        -0.9659259915351868
      ],
      "type": "VEC3"
    },
    {
      "bufferView": 1,
      "byteOffset": 53752,
      "componentType": 5126,
      "count": 288,
      "max": [
        1.0,
        1.0000001192092896
      ],
      "min": [
        7.450580596923828e-08,
        0.9999998807907104
      ],
      "type": "VEC2"
    },
    {
      "bufferView": 0,
      "byteOffset": 54624,
      "componentType": 5125,
      "count": 432,
      "type": "SCALAR"
    },
    {
      "bufferView": 2,
      "byteOffset": 168168,
      "componentType": 5126,
      "count": 502,
      "max": [
        1.1389100551605225,
        2.5071918964385986,
        1.142149567604065
      ],
      "min": [
        -1.1456527709960938,
        1.3431825637817383,
        -1.1424134969711304
      ],
      "type": "VEC3"
    },
    {
      "bufferView": 2,
      "byteOffset": 174192,
      "componentType": 5126,
      "count": 502,
      "max": [
        0.996035099029541,
        1.0,
        0.9960349798202515
      ],
      "min": [
        -0.996035099029541,
        -1.0,
        -0.9960350394248962
      ],
      "type": "VEC3"
    },
    {
      "bufferView": 1,
      "byteOffset": 56056,
      "componentType": 5126,
      "count": 502,
      "max": [
        1.0001174211502075,
        1.0000001192092896
      ],
      "min": [
        -0.00011741129856090993,
        0.9999998807907104
      ],
      "type": "VEC2"
    },
    {
      "bufferView": 0,
      "byteOffset": 56352,
      "componentType": 5125,
      "count": 1728,
      "type": "SCALAR"
    },
    {
      "bufferView": 2,
      "byteOffset": 180216,
      "componentType": 5126,
      "count": 794,
      "max": [
        1.3501527309417725,
        1.2476683855056763,
        1.3533920049667358
      ],
      "min": [
        -1.3568954467773438,
        -0.9999998807907104,
        -1.35365629196167
      ],
      "type": "VEC3"
    },
    {
      "bufferView": 2,
      "byteOffset": 189744,
      "componentType": 5126,
      "count": 794,
      "max": [
        1.0,
        0.5797622203826904,
        0.9659259915351868
      ],
      "min": [
        -0.9659260511398315,
        -1.0,
        -0.9659259915351868
      ],
      "type": "VEC3"
    },
    {
      "bufferView": 1,
      "byteOffset": 60072,
      "componentType": 5126,
      "count": 794,
      "max": [
        1.0,
        1.0000001192092896
      ],
      "min": [
        7.450580596923828e-08,
        0.04725468158721924
      ],
      "type": "VEC2"
    },
    {
      "bufferView": 0,
      "byteOffset": 63264,
      "componentType": 5125,
      "count": 1200,
      "type": "SCALAR"
    },
    {
      "bufferView": 2,
      "byteOffset": 199272,
      "componentType": 5126,
      "count": 48,
      "max": [
        1.2429583072662354,
        0.9615349173545837,
        1.2461977005004883
      ],
      "min": [
        -1.2497012615203857,
        -0.1192026138305664,
        -1.2464619874954224
      ],
      "type": "VEC3"
    },
    {
      "bufferView": 2,
      "byteOffset": 199848,
      "componentType": 5126,
      "count": 48,
      "max": [
        0.9626716375350952,
        -0.08201619982719421,
        0.96267169713974
      ],
      "min": [
        -0.9626719355583191,
        -0.08201633393764496,
        -0.96267169713974
      ],
      "type": "VEC3"
    },
    {
      "bufferView": 1,
      "byteOffset": 66424,
      "componentType": 5126,
      "count": 48,
      "max": [
        0.9520941972732544,
        0.9903838634490967
      ],
      "min": [
        0.006239505484700203,
        0.7201992869377136
      ],
      "type": "VEC2"
    },
    {
      "bufferView": 0,
      "byteOffset": 68064,
      "componentType": 5125,
      "count": 72,
      "type": "SCALAR"
    },
    {
      "bufferView": 2,
      "byteOffset": 200424,
      "componentType": 5126,
      "count": 903,
      "max": [
        1.2260515689849854,
        4.001378059387207,
        1.2292908430099487
      ],
      "min": [
        -1.2327942848205566,
        -1.1066349744796753,
        -1.2295550107955933
      ],
      "type": "VEC3"
    },
    {
      "bufferView": 2,
      "byteOffset": 211260,
      "componentType": 5126,
      "count": 903,
      "max": [
        0.9659263491630554,
        1.0,
        0.9659261107444763
      ],
      "min": [
        -0.9659262299537659,
        -1.0,
        -0.9659261703491211
      ],
      "type": "VEC3"
    },
    {
      "bufferView": 1,
      "byteOffset": 66808,
      "componentType": 5126,
      "count": 903,
      "max": [
        0.9900000095367432,
        0.49000000953674316
      ],
      "min": [
        0.21819926798343658,
        0.01000000536441803
      ],
      "type": "VEC2"
    },
    {
      "bufferView": 0,
      "byteOffset": 68352,
      "componentType": 5125,
      "count": 1593,
      "type": "SCALAR"
    }
  ],
  "asset": {
    "extras": {
      "author": "Rectilon (https://sketchfab.com/Rectilon)",
      "license": "CC-BY-4.0 (http://creativecommons.org/licenses/by/4.0/)",
      "source": "https://sketchfab.com/3d-models/low-poly-satellite-964642731c274468bf9f7c03dbfdb8b9",
      "title": "Low Poly Satellite"
    },
    "generator": "Sketchfab-12.65.0",
    "version": "2.0"
  },
  "bufferViews": [
    {
      "buffer": 0,
      "byteLength": 74724,
      "name": "floatBufferViews",
      "target": 34963
    },
    {
      "buffer": 0,
      "byteLength": 74032,
      "byteOffset": 74724,
      "byteStride": 8,
      "name": "floatBufferViews",
      "target": 34962
    },
    {
      "buffer": 0,
      "byteLength": 222096,
      "byteOffset": 148756,
      "byteStride": 12,
      "name": "floatBufferViews",
      "target": 34962
    }
  ],
  "buffers": [
    {
      "byteLength": 370852,
      "uri": "scene.bin"
    }
  ],
  "materials": [
    {
      "doubleSided": true,
      "name": "Material.007",
      "pbrMetallicRoughness": {
        "baseColorFactor": [
          0.263758,
          0.766511,
          0.8,
          1.0
        ],
        "metallicFactor": 0.0,
        "roughnessFactor": 0.5
      }
    },
    {
      "doubleSided": true,
      "name": "Material.001",
      "pbrMetallicRoughness": {
        "baseColorFactor": [
          0.047542,
          0.212046,
          0.704073,
          1.0
        ],
        "metallicFactor": 0.0,
        "roughnessFactor": 0.0
      }
    },
    {
      "doubleSided": true,
      "name": "Material",
      "pbrMetallicRoughness": {
        "baseColorFactor": [
          0.0116135,
          0.0598247,
          0.288249,
          1.0
        ],
        "metallicFactor": 0.0,
        "roughnessFactor": 0.445455
      }
    },
    {
      "doubleSided": true,
      "name": "Material.002",
      "pbrMetallicRoughness": {
        "baseColorFactor": [
          0.0179732,
          0.407569,
          0.650973,
          1.0
        ],
        "metallicFactor": 0.513636,
        "roughnessFactor": 0.754545
      }
    },
    {
      "doubleSided": true,
      "name": "Material.003",
      "pbrMetallicRoughness": {
        "baseColorFactor": [
          0.140081,
          0.689107,
          1.0,
          1.0
        ],
        "metallicFactor": 0.0,
        "roughnessFactor": 0.359091
      }
    },
    {
      "doubleSided": true,
      "name": "Material.004",
      "pbrMetallicRoughness": {
        "baseColorFactor": [
          0.0262083,
          0.155685,
          0.202406,
          1.0
        ],
        "metallicFactor": 0.0,
        "roughnessFactor": 0.5
      }
    },
    {
      "doubleSided": true,
      "name": "Material.005",
      "pbrMetallicRoughness": {
        "baseColorFactor": [
          0.0,
          0.260885,
          0.267397,
          1.0
        ],
        "metallicFactor": 0.0,
        "roughnessFactor": 0.5
      }
    },
    {
      "doubleSided": true,
      "name": "Material.006",
      "pbrMetallicRoughness": {
        "baseColorFactor": [
          0.0831945,
          0.0831945,
          0.0831945,
          1.0
        ],
        "metallicFactor": 0.0,
        "roughnessFactor": 0.5
      }
    }
  ],
  "meshes": [
    {
      "name": "Object_0",
      "primitives": [
        {
          "attributes": {
            "NORMAL": 1,
            "POSITION": 0,
            "TEXCOORD_0": 2
          },
          "indices": 3,
          "material": 0,
          "mode": 4
        }
      ]
    },
    {
      "name": "Object_1",
      "primitives": [
        {
          "attributes": {
            "NORMAL": 5,
            "POSITION": 4,
            "TEXCOORD_0": 6
          },
          "indices": 7,
          "material": 1,
          "mode": 4
        }
      ]
    },
    {
      "name": "Object_2",
      "primitives": [
        {
          "attributes": {
            "NORMAL": 9,
            "POSITION": 8,
            "TEXCOORD_0": 10
          },
          "indices": 11,
          "material": 2,
          "mode": 4
        }
      ]
    },
    {
      "name": "Object_3",
      "primitives": [
        {
          "attributes": {
            "NORMAL": 13,
            "POSITION": 12,
            "TEXCOORD_0": 14
          },
          "indices": 15,
          "material": 1,
          "mode": 4
        }
      ]
    },
    {
      "name": "Object_4",
      "primitives": [
        {
          "attributes": {
            "NORMAL": 17,
            "POSITION": 16,
            "TEXCOORD_0": 18
          },
          "indices": 19,
          "material": 2,
          "mode": 4
        }
      ]
    },
    {
      "name": "Object_5",
      "primitives": [
        {
          "attributes": {
            "NORMAL": 21,
            "POSITION": 20,
            "TEXCOORD_0": 22
          },
          "indices": 23,
          "material": 3,
          "mode": 4
        }
      ]
    },
    {
      "name": "Object_6",
      "primitives": [
        {
          "attributes": {
            "NORMAL": 25,
            "POSITION": 24,
            "TEXCOORD_0": 26
          },
          "indices": 27,
          "material": 4,
          "mode": 4
        }
      ]
    },
    {
      "name": "Object_7",
      "primitives": [
        {
          "attributes": {
            "NORMAL": 29,
            "POSITION": 28,
            "TEXCOORD_0": 30
          },
          "indices": 31,
          "material": 5,
          "mode": 4
        }
      ]
    },
    {
      "name": "Object_8",
      "primitives": [
        {
          "attributes": {
            "NORMAL": 33,
            "POSITION": 32,
            "TEXCOORD_0": 34
          },
          "indices": 35,
          "material": 6,
          "mode": 4
        }
      ]
    },
    {
      "name": "Object_9",
      "primitives": [
        {
          "attributes": {
            "NORMAL": 37,
            "POSITION": 36,
            "TEXCOORD_0": 38
          },
          "indices": 39,
          "material": 7,
          "mode": 4
        }
      ]
    }
  ],
  "nodes": [
    {
      "children": [
        1
      ],
      "matrix": [
        1.0,
        0.0,
        0.0,
        0.0,
        0.0,
        2.220446049250313e-16,
        -1.0,
        0.0,
        0.0,
        1.0,
        2.220446049250313e-16,
        0.0,
        0.0,
        0.0,
        0.0,
        1.0
      ],
      "name": "Sketchfab_model"
    },
    {
      "children": [
        2
      ],
      "name": "root"
    },
    {
      "children": [
        3,
        5,
        7,
        9,
        11,
        13,
        15,
        17,
        19,
        21
      ],
      "matrix": [
        1.0,
        0.0,
        0.0,
        0.0,
        0.0,
        2.220446049250313e-16,
        1.0,
        0.0,
        0.0,
        -1.0,
        2.220446049250313e-16,
        0.0,
        0.0,
        0.0,
        0.0,
        1.0
      ],
      "name": "GLTF_SceneRootNode"
    },
    {
      "children": [
        4
      ],
      "matrix": [
        1.4811789989471436,
        0.0,
        0.0,
        0.0,
        0.0,
        2.283585548400879,
        0.0,
        0.0,
        0.0,
        0.0,
        1.4811789989471436,
        0.0,
        0.0,
        2.3956453800201416,
        0.0,
        1.0
      ],
      "name": "Cylinder_1"
    },
    {
      "mesh": 0,
      "name": "Object_4"
    },
    {
      "children": [
        6
      ],
      "matrix": [
        1.4811789989471436,
        0.0,
        0.0,
        0.0,
        0.0,
        2.283585548400879,
        0.0,
        0.0,
        0.0,
        0.0,
        1.4811789989471436,
        0.0,
        0.1371794044971466,
        2.3956453800201416,
        0.0,
        1.0
      ],
      "name": "Cylinder.001_2"
    },
    {
      "mesh": 1,
      "name": "Object_6"
    },
    {
      "children": [
        8
      ],
      "matrix": [
        1.4811789989471436,
        0.0,
        0.0,
        0.0,
        0.0,
        2.283585548400879,
        0.0,
        0.0,
        0.0,
        0.0,
        1.4811789989471436,
        0.0,
        0.1371794044971466,
        2.3956453800201416,
        0.0,
        1.0
      ],
      "name": "Cylinder.002_3"
    },
    {
      "mesh": 2,
      "name": "Object_8"
    },
    {
      "children": [
        10
      ],
      "matrix": [
        -1.4811789989471376,
        0.0,
        1.294887806902805e-07,
        0.0,
        0.0,
        2.283585548400879,
        0.0,
        0.0,
        -1.294887806902805e-07,
        0.0,
        -1.4811789989471376,
        0.0,
        -0.10440809279680252,
        2.3956453800201416,
        0.0,
        1.0
      ],
      "name": "Cylinder.003_4"
    },
    {
      "mesh": 3,
      "name": "Object_10"
    },
    {
      "children": [
        12
      ],
      "matrix": [
        -1.4811789989471376,
        0.0,
        1.294887806902805e-07,
        0.0,
        0.0,
        2.283585548400879,
        0.0,
        0.0,
        -1.294887806902805e-07,
        0.0,
        -1.4811789989471376,
        0.0,
        -0.10440809279680252,
        2.3956453800201416,
        0.0,
        1.0
      ],
      "name": "Cylinder.004_5"
    },
    {
      "mesh": 4,
      "name": "Object_12"
    },
    {
      "children": [
        14
      ],
      "matrix": [
        1.4811789989471436,
        0.0,
        0.0,
        0.0,
        0.0,
        2.283585548400879,
        0.0,
        0.0,
        0.0,
        0.0,
        1.4811789989471436,
        0.0,
        0.0,
        2.3956453800201416,
        0.0,
        1.0
      ],
      "name": "Cylinder.005_6"
    },
    {
      "mesh": 5,
      "name": "Object_14"
    },
    {
      "children": [
        16
      ],
      "matrix": [
        1.4811789989471436,
        0.0,
        0.0,
        0.0,
        0.0,
        2.283585548400879,
        0.0,
        0.0,
        0.0,
        0.0,
        1.4811789989471436,
        0.0,
        0.0,
        2.3956453800201416,
        0.0,
        1.0
      ],
      "name": "Cylinder.006_7"
    },
    {
      "mesh": 6,
      "name": "Object_16"
    },
    {
      "children": [
        18
      ],
      "matrix": [
        1.4811789989471436,
        0.0,
        0.0,
        0.0,
        0.0,
        2.283585548400879,
        0.0,
        0.0,
        0.0,
        0.0,
        1.4811789989471436,
        0.0,
        0.0,
        2.3956453800201416,
        0.0,
        1.0
      ],
      "name": "Cylinder.007_8"
    },
    {
      "mesh": 7,
      "name": "Object_18"
    },
    {
      "children": [
        20
      ],
      "matrix": [
        1.4811789989471436,
        0.0,
        0.0,
        0.0,
        0.0,
        2.283585548400879,
        0.0,
        0.0,
        0.0,
        0.0,
        1.4811789989471436,
        0.0,
        0.0,
        2.3956453800201416,
        0.0,
        1.0
      ],
      "name": "Cylinder.008_9"
    },
    {
      "mesh": 8,
      "name": "Object_20"
    },
    {
      "children": [
        22
      ],
      "matrix": [
        1.4811789989471436,
        0.0,
        0.0,
        0.0,
        0.0,
        2.283585548400879,
        0.0,
        0.0,
        0.0,
        0.0,
        1.4811789989471436,
        0.0,
        0.0,
        2.3956453800201416,
        0.0,
        1.0
      ],
      "name": "Cylinder.009_10"
    },
    {
      "mesh": 9,
      "name": "Object_22"
    }
  ],
  "scene": 0,
  "scenes": [
    {
      "name": "Sketchfab_Scene",
      "nodes": [
        0
      ]
    }
  ]
}
