{
	"asset":{
		"generator":"Khronos glTF Blender I/O v4.0.44",
		"version":"2.0"
	},
	"scene":0,
	"scenes":[
		{
			"name":"Scene",
			"nodes":[
				0
			]
		}
	],
	"nodes":[
		{
			"mesh":0,
			"name":"defaultMaterial.535"
		}
	],
	"materials":[
		{
			"doubleSided":true,
			"name":"phong2SG",
			"normalTexture":{
				"index":0
			},
			"occlusionTexture":{
				"index":1
			},
			"pbrMetallicRoughness":{
				"baseColorTexture":{
					"index":2
				},
				"metallicRoughnessTexture":{
					"index":1
				}
			}
		},
		{
			"doubleSided":true,
			"name":"phong1SG",
			"normalTexture":{
				"index":3
			},
			"occlusionTexture":{
				"index":4
			},
			"pbrMetallicRoughness":{
				"baseColorTexture":{
					"index":5
				},
				"metallicRoughnessTexture":{
					"index":4
				}
			}
		}
	],
	"meshes":[
		{
			"name":"defaultMaterial.537",
			"primitives":[
				{
					"attributes":{
						"POSITION":0,
						"NORMAL":1,
						"TEXCOORD_0":2
					},
					"indices":3,
					"material":0
				},
				{
					"attributes":{
						"POSITION":4,
						"NORMAL":5,
						"TEXCOORD_0":6
					},
					"indices":7,
					"material":1
				}
			]
		}
	],
	"textures":[
		{
			"sampler":0,
			"source":0
		},
		{
			"sampler":0,
			"source":1
		},
		{
			"sampler":0,
			"source":2
		},
		{
			"sampler":0,
			"source":3
		},
		{
			"sampler":0,
			"source":4
		},
		{
			"sampler":0,
			"source":5
		}
	],
	"images":[
		{
			"mimeType":"image/png",
			"name":"phong2SG_normal",
			"uri":"phong2SG_normal.png"
		},
		{
			"mimeType":"image/png",
			"name":"phong2SG_metallicRoughness",
			"uri":"phong2SG_metallicRoughness.png"
		},
		{
			"mimeType":"image/jpeg",
			"name":"phong2SG_baseColor",
			"uri":"phong2SG_baseColor.jpg"
		},
		{
			"mimeType":"image/png",
			"name":"phong1SG_normal",
			"uri":"phong1SG_normal.png"
		},
		{
			"mimeType":"image/png",
			"name":"phong1SG_metallicRoughness",
			"uri":"phong1SG_metallicRoughness.png"
		},
		{
			"mimeType":"image/jpeg",
			"name":"phong1SG_baseColor",
			"uri":"phong1SG_baseColor.jpg"
		}
	],
	"accessors":[
		{
			"bufferView":0,
			"componentType":5126,
			"count":12475,
			"max":[
				0.20525820553302765,
				0.3377561569213867,
				0.20518869161605835
			],
			"min":[
				-0.2051898092031479,
				0.11178336292505264,
				-0.20525971055030823
			],
			"type":"VEC3"
		},
		{
			"bufferView":1,
			"componentType":5126,
			"count":12475,
			"type":"VEC3"
		},
		{
			"bufferView":2,
			"componentType":5126,
			"count":12475,
			"type":"VEC2"
		},
		{
			"bufferView":3,
			"componentType":5123,
			"count":43857,
			"type":"SCALAR"
		},
		{
			"bufferView":4,
			"componentType":5126,
			"count":46224,
			"max":[
				1.000034213066101,
				0.12943977117538452,
				0.6373717188835144
			],
			"min":[
				-0.9999657869338989,
				-0.14253084361553192,
				-1.0948843955993652
			],
			"type":"VEC3"
		},
		{
			"bufferView":5,
			"componentType":5126,
			"count":46224,
			"type":"VEC3"
		},
		{
			"bufferView":6,
			"componentType":5126,
			"count":46224,
			"type":"VEC2"
		},
		{
			"bufferView":7,
			"componentType":5123,
			"count":155889,
			"type":"SCALAR"
		}
	],
	"bufferViews":[
		{
			"buffer":0,
			"byteLength":149700,
			"byteOffset":0,
			"target":34962
		},
		{
			"buffer":0,
			"byteLength":149700,
			"byteOffset":149700,
			"target":34962
		},
		{
			"buffer":0,
			"byteLength":99800,
			"byteOffset":299400,
			"target":34962
		},
		{
			"buffer":0,
			"byteLength":87714,
			"byteOffset":399200,
			"target":34963
		},
		{
			"buffer":0,
			"byteLength":554688,
			"byteOffset":486916,
			"target":34962
		},
		{
			"buffer":0,
			"byteLength":554688,
			"byteOffset":1041604,
			"target":34962
		},
		{
			"buffer":0,
			"byteLength":369792,
			"byteOffset":1596292,
			"target":34962
		},
		{
			"buffer":0,
			"byteLength":311778,
			"byteOffset":1966084,
			"target":34963
		}
	],
	"samplers":[
		{
			"magFilter":9729,
			"minFilter":9987
		}
	],
	"buffers":[
		{
			"byteLength":2277864,
			"uri":"sat%20low%20poly.bin"
		}
	]
}
