{"accessors" : [{"bufferView" : 0, "byteOffset" : 0, "componentType" : 5123, "count" : 15714, "type" : "SCALAR", "max" : [14873], "min" : [0]}, {"bufferView" : 1, "byteOffset" : 0, "componentType" : 5126, "count" : 14874, "type" : "VEC3", "max" : [8.552499771118164, 3.546380043029785, 3.64424991607666], "min" : [-8.578840255737305, -4.299650192260742, -3.6029999256134033], "name" : "POSITION"}, {"bufferView" : 1, "byteOffset" : 12, "componentType" : 5126, "count" : 14874, "type" : "VEC2", "max" : [0.993116021156311, 1], "min" : [0, 0], "name" : "TEXCOORD_0"}, {"bufferView" : 1, "byteOffset" : 20, "componentType" : 5126, "count" : 14874, "type" : "VEC3", "max" : [1.0000044107437134, 1.0000044107437134, 1.0000044107437134], "min" : [-1.0000044107437134, -1.0000044107437134, -1.0000044107437134], "name" : "NORMAL"}], "asset" : {"generator" : "Aspose.3D 24.1.0", "version" : "2.0"}, "buffers" : [{"uri" : "data:application/octet-stream;base64,", "byteLength" : 534284}], "bufferViews" : [{"buffer" : 0, "byteOffset" : 0, "byteLength" : 31428, "target" : 34963}, {"buffer" : 0, "byteOffset" : 31432, "byteLength" : 502848, "byteStride" : 32, "target" : 34962}], "meshes" : [{"primitives" : [{"attributes" : {"POSITION" : 1, "TEXCOORD_0" : 2, "NORMAL" : 3}, "indices" : 0, "mode" : 4}], "name" : ""}], "nodes" : [{"mesh" : 0, "name" : "Satelite_Satelite"}], "scene" : 0, "scenes" : [{"nodes" : [0]}]}